<?xml version="1.0" standalone="no"?><!DOCTYPE svg PUBLIC "-//W3C//DTD SVG 1.1//EN" "http://www.w3.org/Graphics/SVG/1.1/DTD/svg11.dtd"><svg t="1641565408295" class="icon" viewBox="0 0 1024 1024" version="1.1" xmlns="http://www.w3.org/2000/svg" p-id="3471" xmlns:xlink="http://www.w3.org/1999/xlink" width="200" height="200"><defs><style type="text/css"></style></defs><path d="M523.894949 397.705051c-2.585859-0.517172-5.171717-2.068687-6.20606-4.137374 0-0.517172-25.341414-56.888889-62.060606-78.610101-2.068687-1.551515-3.620202-3.620202-3.620202-6.206061s1.551515-4.654545 4.137374-5.688889c1.551515-0.517172 3.10303-1.034343 4.654545-0.517171 1.034343 0 2.068687 0.517172 3.10303 1.034343 17.583838 10.343434 34.650505 27.927273 50.165657 52.234343 6.723232 10.860606 12.929293 21.721212 18.10101 33.09899 1.034343 2.068687 0.517172 4.654545-1.034343 6.723233-1.551515 1.551515-3.620202 2.585859-6.206061 2.585858l-1.034344-0.517171z" fill="#167203" p-id="3472"></path><path d="M502.173737 355.814141c-33.09899-42.408081-39.822222-87.40202-98.779798-86.367676-55.854545 2.585859-60.509091 36.719192-94.642424 91.022222-43.442424 49.131313-69.818182 119.466667-69.818182 202.731313 0 139.636364 80.161616 168.59798 168.080808 198.593939 93.608081-28.444444 168.080808-59.474747 168.080808-198.593939-1.034343-85.850505-35.684848-159.288889-72.921212-207.385859z m0 0" fill="#6FCE02" p-id="3473"></path><path d="M405.979798 775.757576c-1.551515 0-3.10303 0-4.654545-0.517172-40.856566-13.963636-87.919192-29.99596-121.535354-61.026263-37.236364-34.133333-55.854545-83.781818-55.854545-150.496969 0-82.747475 25.858586-157.737374 72.921212-211.006061 6.723232-10.860606 12.412121-20.686869 17.583838-29.478788 20.169697-36.20202 36.20202-64.646465 87.919192-66.715151h0.517172c51.717172-0.517172 70.852525 30.513131 89.470707 60.509091 6.206061 10.343434 12.929293 20.686869 20.686868 31.030303 27.927273 36.20202 74.989899 111.709091 74.989899 216.177777 0 68.783838-17.066667 116.880808-53.268686 151.014142-33.09899 31.547475-77.575758 46.545455-124.638384 61.026262-1.034343-1.034343-2.585859-0.517172-4.137374-0.517171z m-2.585859-492.347475c-36.20202 1.551515-44.993939 17.583838-64.646464 52.751515-5.171717 9.309091-11.377778 20.169697-18.618182 32.064647l-1.551515 1.551515c-42.925253 48.614141-66.715152 117.39798-66.715152 193.422222 0 129.292929 70.852525 155.668687 154.117172 184.113131 93.090909-28.444444 153.6-57.923232 153.6-184.113131 0-69.818182-25.341414-142.222222-69.30101-198.593939-8.791919-11.377778-16.032323-23.272727-22.238384-33.616162-18.10101-29.478788-28.961616-47.062626-63.612121-47.062626l-1.034344-0.517172z m0 0" fill="#27B504" p-id="3474"></path><path d="M527.515152 429.252525c-139.636364 0-176.355556 80.678788-198.59394 168.080808C349.090909 682.149495 388.39596 765.414141 527.515152 765.414141c83.264646 0 153.6-26.375758 202.731313-69.818181 54.30303-34.133333 88.436364-39.305051 91.022222-94.642425 1.034343-58.957576-43.959596-65.680808-86.367677-98.779798-48.09697-38.270707-121.535354-72.921212-207.385858-72.921212z m0 0" fill="#FF9D00" p-id="3475"></path><path d="M527.515152 778.860606c-67.749495 0-117.915152-18.618182-154.117172-56.371717-34.133333-36.20202-49.131313-84.29899-57.923233-122.052525-0.517172-2.068687-0.517172-4.654545 0-6.723233 23.789899-92.573737 65.680808-178.424242 212.040405-178.424242 103.951515 0 179.975758 47.062626 216.177777 74.989899 10.343434 8.274747 20.686869 14.480808 31.030303 20.686869 29.99596 18.618182 61.543434 37.753535 60.509091 89.470707v0.517171c-2.585859 51.717172-31.030303 67.749495-66.715151 87.919192-8.791919 5.171717-19.135354 10.860606-29.478788 17.583839-53.785859 46.545455-128.775758 72.40404-211.523232 72.40404z m-184.113132-181.527273c19.652525 80.161616 56.371717 153.6 184.113132 153.6 76.024242 0 144.808081-23.789899 193.422222-66.715151l1.551515-1.551515c11.377778-7.240404 22.238384-13.446465 32.064646-18.618182 34.650505-19.652525 50.682828-28.444444 52.751516-64.646465 0.517172-35.684848-17.583838-46.545455-47.062627-64.646464-10.343434-6.206061-22.238384-13.446465-33.616161-22.755556-56.888889-43.442424-129.292929-68.783838-199.111111-68.783838-131.878788 0-163.943434 75.507071-184.113132 154.117171z m0 0" fill="#FFCE00" p-id="3476"></path><path d="M534.238384 532.686869c-94.125253 0-133.947475 28.444444-133.947475 68.266666 0 39.305051 39.822222 68.266667 133.947475 68.266667 55.854545 0 103.951515-10.860606 137.050505-28.444444 36.719192-13.963636 59.474747-16.032323 61.543434-38.270707 0.517172-23.789899-29.478788-26.892929-58.440404-39.822223-32.581818-16.032323-82.230303-29.99596-140.153535-29.995959z m0 0" fill="#FFCE00" p-id="3477"></path><path d="M459.765657 567.337374c0 4.654545 2.585859 8.791919 6.20606 10.860606 4.137374 2.068687 8.791919 2.068687 12.412121 0 4.137374-2.068687 6.206061-6.206061 6.206061-10.860606 0-4.654545-2.585859-8.791919-6.206061-10.860606-4.137374-2.068687-8.791919-2.068687-12.412121 0s-6.206061 6.206061-6.20606 10.860606z m0 0M498.553535 571.991919c0 4.654545 2.585859 8.791919 6.206061 10.860606 4.137374 2.068687 8.791919 2.068687 12.412121 0 4.137374-2.068687 6.206061-6.206061 6.206061-10.860606 0-4.654545-2.585859-8.791919-6.206061-10.860606-4.137374-2.068687-8.791919-2.068687-12.412121 0s-6.206061 6.206061-6.206061 10.860606z m0 0M540.444444 553.373737c0 7.240404 5.688889 12.412121 12.412122 12.412122 7.240404 0 12.412121-5.688889 12.412121-12.412122 0-4.654545-2.585859-8.791919-6.206061-10.860606-4.137374-2.068687-8.791919-2.068687-12.412121 0-4.137374 2.068687-6.206061 6.206061-6.206061 10.860606z m0 0M528.549495 597.333333c0 7.240404 5.688889 12.412121 12.412121 12.412122 7.240404 0 12.412121-5.688889 12.412121-12.412122 0-4.654545-2.585859-8.791919-6.20606-10.860606-4.137374-2.068687-8.791919-2.068687-12.412121 0s-6.206061 6.206061-6.206061 10.860606z m0 0M485.107071 606.642424c0 4.654545 2.585859 8.791919 6.20606 10.860606 4.137374 2.068687 8.791919 2.068687 12.412122 0 4.137374-2.068687 6.206061-6.206061 6.20606-10.860606 0-4.654545-2.585859-8.791919-6.20606-10.860606-4.137374-2.068687-8.791919-2.068687-12.412122 0-4.137374 2.068687-6.206061 6.206061-6.20606 10.860606z m0 0M450.456566 597.333333c0 4.654545 2.585859 8.791919 6.20606 10.860606 4.137374 2.068687 8.791919 2.068687 12.412121 0 4.137374-2.068687 6.206061-6.206061 6.206061-10.860606s-2.585859-8.791919-6.206061-10.860606c-4.137374-2.068687-8.791919-2.068687-12.412121 0s-6.206061 6.206061-6.20606 10.860606z m0 0M413.737374 601.987879c0 4.654545 2.585859 8.791919 6.20606 10.860606 4.137374 2.068687 8.791919 2.068687 12.412122 0 4.137374-2.068687 6.206061-6.206061 6.20606-10.860606s-2.585859-8.791919-6.20606-10.860606c-4.137374-2.068687-8.791919-2.068687-12.412122 0s-6.206061 6.206061-6.20606 10.860606z m0 0M457.179798 636.121212c0 4.654545 2.585859 8.791919 6.206061 10.860606 4.137374 2.068687 8.791919 2.068687 12.412121 0 4.137374-2.068687 6.206061-6.206061 6.20606-10.860606 0-4.654545-2.585859-8.791919-6.20606-10.860606-4.137374-2.068687-8.791919-2.068687-12.412121 0-3.620202 2.585859-6.206061 6.723232-6.206061 10.860606z m0 0M496.484848 640.775758c0 4.654545 2.585859 8.791919 6.206061 10.860606 4.137374 2.068687 8.791919 2.068687 12.412121 0 4.137374-2.068687 6.206061-6.206061 6.206061-10.860606 0-4.654545-2.585859-8.791919-6.206061-10.860606-4.137374-2.068687-8.791919-2.068687-12.412121 0s-6.206061 6.206061-6.206061 10.860606z m0 0M553.890909 624.743434c0 7.240404 5.688889 12.412121 12.412121 12.412122 7.240404 0 12.412121-5.688889 12.412122-12.412122 0-7.240404-5.688889-12.412121-12.412122-12.412121-6.723232 0-12.412121 5.688889-12.412121 12.412121z m0 0M515.10303 622.674747c0 4.654545 2.585859 8.791919 6.206061 10.860607 4.137374 2.068687 8.791919 2.068687 12.412121 0 4.137374-2.068687 6.206061-6.206061 6.206061-10.860607 0-4.654545-2.585859-8.791919-6.206061-10.860606-4.137374-2.068687-8.791919-2.068687-12.412121 0-4.137374 2.068687-6.206061 6.206061-6.206061 10.860606z m0 0M698.69899 592.678788c0 4.654545 2.585859 8.791919 6.206061 10.860606 4.137374 2.068687 8.791919 2.068687 12.412121 0 4.137374-2.068687 6.206061-6.206061 6.20606-10.860606 0-4.654545-2.585859-8.791919-6.20606-10.860606-4.137374-2.068687-8.791919-2.068687-12.412121 0s-6.206061 6.206061-6.206061 10.860606z m0 0M535.789899 645.430303c0 7.240404 5.688889 12.412121 12.412121 12.412121 7.240404 0 12.412121-5.688889 12.412121-12.412121 0-4.654545-2.585859-8.791919-6.20606-10.860606-4.137374-2.068687-8.791919-2.068687-12.412121 0-4.137374 2.068687-6.206061 6.206061-6.206061 10.860606z m0 0M565.268687 599.40202c0 4.654545 2.585859 8.791919 6.20606 10.860606 4.137374 2.068687 8.791919 2.068687 12.412122 0 4.137374-2.068687 6.206061-6.206061 6.20606-10.860606s-2.585859-8.791919-6.20606-10.860606c-4.137374-2.068687-8.791919-2.068687-12.412122 0s-6.206061 6.206061-6.20606 10.860606z m0 0M588.541414 627.329293c0 4.654545 2.585859 8.791919 6.206061 10.860606 4.137374 2.068687 8.791919 2.068687 12.412121 0 4.137374-2.068687 6.206061-6.206061 6.206061-10.860606s-2.585859-8.791919-6.206061-10.860606c-4.137374-2.068687-8.791919-2.068687-12.412121 0s-6.206061 6.206061-6.206061 10.860606z m0 0" fill="#593E01" p-id="3478"></path><path d="M588.541414 599.40202c0 4.654545 2.585859 8.791919 6.206061 10.860606 4.137374 2.068687 8.791919 2.068687 12.412121 0 4.137374-2.068687 6.206061-6.206061 6.206061-10.860606s-2.585859-8.791919-6.206061-10.860606c-4.137374-2.068687-8.791919-2.068687-12.412121 0s-6.206061 6.206061-6.206061 10.860606z m0 0M577.163636 564.751515c0 4.654545 2.585859 8.791919 6.206061 10.860606 4.137374 2.068687 8.791919 2.068687 12.412121 0 4.137374-2.068687 6.206061-6.206061 6.206061-10.860606 0-4.654545-2.585859-8.791919-6.206061-10.860606-4.137374-2.068687-8.791919-2.068687-12.412121 0-4.137374 2.585859-6.206061 6.723232-6.206061 10.860606z m0 0M613.882828 585.438384c0 7.240404 5.688889 12.412121 12.412121 12.412121 7.240404 0 12.412121-5.688889 12.412122-12.412121 0-7.240404-5.688889-12.412121-12.412122-12.412121-6.723232 0-12.412121 5.688889-12.412121 12.412121z m0 0M645.947475 583.369697c0 4.654545 2.585859 8.791919 6.20606 10.860606 4.137374 2.068687 8.791919 2.068687 12.412122 0 4.137374-2.068687 6.206061-6.206061 6.20606-10.860606s-2.585859-8.791919-6.20606-10.860606c-4.137374-2.068687-8.791919-2.068687-12.412122 0s-6.206061 6.206061-6.20606 10.860606z m0 0M634.569697 618.020202c0 4.654545 2.585859 8.791919 6.206061 10.860606 4.137374 2.068687 8.791919 2.068687 12.412121 0 4.137374-2.068687 6.206061-6.206061 6.20606-10.860606 0-4.654545-2.585859-8.791919-6.20606-10.860606-4.137374-2.068687-8.791919-2.068687-12.412121 0s-6.206061 6.206061-6.206061 10.860606z m0 0M678.012121 610.779798c0 4.654545 2.585859 8.791919 6.206061 10.860606 4.137374 2.068687 8.791919 2.068687 12.412121 0 4.137374-2.068687 6.206061-6.206061 6.206061-10.860606s-2.585859-8.791919-6.206061-10.860606c-4.137374-2.068687-8.791919-2.068687-12.412121 0-3.620202 2.585859-6.206061 6.723232-6.206061 10.860606z m0 0M615.951515 636.121212c0 4.654545 2.585859 8.791919 6.206061 10.860606 4.137374 2.068687 8.791919 2.068687 12.412121 0 4.137374-2.068687 6.206061-6.206061 6.206061-10.860606 0-4.654545-2.585859-8.791919-6.206061-10.860606-4.137374-2.068687-8.791919-2.068687-12.412121 0-3.620202 2.585859-6.206061 6.723232-6.206061 10.860606z m0 0" fill="#593E01" p-id="3479"></path><path d="M381.672727 259.10303c0 6.723232 10.343434 11.894949 22.755556 11.89495 12.412121 0 22.755556-5.171717 22.755555-11.89495 0-6.723232-10.343434-11.894949-22.755555-11.894949-12.412121-0.517172-22.755556 5.171717-22.755556 11.894949z m0 0" fill="#27B504" p-id="3480"></path><path d="M820.234343 599.40202c0 12.412121 5.171717 22.755556 11.89495 22.755556 6.723232 0 11.894949-10.343434 11.894949-22.755556 0-12.412121-5.171717-22.755556-11.894949-22.755555-6.206061 0-11.894949 10.343434-11.89495 22.755555z m0 0" fill="#FFCE00" p-id="3481"></path><path d="M282.375758 589.058586c-7.757576 0-13.963636-6.206061-13.963637-13.963637-0.517172-57.406061 7.757576-95.676768 30.513132-141.187878 2.068687-4.654545 6.723232-7.240404 11.894949-7.757576 5.171717-0.517172 9.826263 2.068687 12.412121 6.206061 2.585859 4.137374 3.10303 9.309091 1.034344 13.963636-20.686869 41.373737-27.927273 74.989899-27.410101 128.258586-0.517172 8.274747-6.723232 14.480808-14.480808 14.480808z m0 0M313.406061 403.393939c0 6.206061 3.10303 11.377778 8.274747 14.480808 5.171717 3.10303 11.377778 3.10303 16.549495 0s8.274747-8.274747 8.274748-14.480808c0-6.206061-3.10303-11.377778-8.274748-14.480808-5.171717-3.10303-11.377778-3.10303-16.549495 0s-8.274747 8.791919-8.274747 14.480808z m0 0" fill="#FFFFFF" p-id="3482"></path></svg>